<svg xmlns="http://www.w3.org/2000/svg" width="1000" height="223.991"><path d="M167.28 5.99v87.558A430559.994 430559.994 0 0 0 79.742 5.99h-48.1l26.41 26.4c8.66 0 15.7 7.029 15.7 15.709v131.356C44.467 206.039 29.758 212.952 0 223.99c38.138-3.175 80.023-3.728 130.793-54.508l-22.924-22.923c-.039.039-.077.068-.106.107V82.11l93.548 93.558V48.098c0-8.68 7.03-15.709 15.7-15.709L243.41 5.99" style="fill:#000;fill-opacity:1;fill-rule:nonzero;stroke:none"/><path d="M258.246 170.047V20.817l-34.022 34.496v114.734M553.493 70.993c1.408-12.787 2.155-25.778 2.155-38.74h29.73c0 27.274 3.253 54.605 9.311 79.946l-41.196-41.206Zm101.199 99.054C635.74 139.85 619.127 90.48 619.127 5.99H521.92c0 84.49-16.613 133.861-35.565 164.057h39.244c9.952-19.496 17.632-42.4 22.759-66.887l67.07 66.887M711.093 143.463c-6.117 0-11.826-6.146-14.079-11.457-11.185-26.273-19.971-66.858-19.971-91.84 0-4.495 3.398-7.912 8.913-7.912h50.225L762.416 5.99h-95.131c-14.622 0-26.506 11.865-26.506 26.477 0 41.71 10.156 81.917 23.01 111.336 7.632 17.457 22.458 26.244 35.837 26.244h62.79v-67.625l-30.944-31.429v72.47M870.634 136.598c0 3.962-3.223 7.205-7.213 7.205h-40.78c-3.97 0-7.223-3.243-7.223-7.205v-97.14c0-3.971 3.253-7.195 7.224-7.195h40.779c3.99 0 7.213 3.224 7.213 7.195v97.14zM1000 223.991c-37.662-13.962-60.362-29.419-96.82-71.78a26.243 26.243 0 0 0 1.476-8.632V48.11c0-8.69 7.029-15.71 15.7-15.71L946.744 5.99H807.903c-14.622 0-26.496 11.865-26.496 26.487v111.102c0 14.622 11.874 26.468 26.496 26.468h67.285c50.459 50.216 86.79 50.789 124.812 53.944M426.496 5.99 452.8 32.283l10.389-.03c-2.836 105.666-27.41 149.639-82.208 191.738 87.567-39.71 118.073-86.985 118.073-218" style="fill:#000;fill-opacity:1;fill-rule:nonzero;stroke:none"/><g style="fill:#000"><path d="m0 0-.004 1.961-2.713-2.714v-2.771l.022.021h8.996c-1.628-1.628-8.274-8.271-9.635-9.635H14.18v3.504H5.123L14.759 0" style="fill:#000;fill-opacity:1;fill-rule:nonzero;stroke:none" transform="matrix(0 9.7092 9.7092 0 408.719 32.37)"/></g></svg>